<svg width="17" height="18" viewBox="0 0 17 18" fill="none" xmlns="http://www.w3.org/2000/svg">
<path fill-rule="evenodd" clip-rule="evenodd" d="M7.85364 0.7525C8.02783 0.752227 8.21522 0.752312 8.41744 0.752402L8.75074 0.7525C11.4208 0.7525 11.7372 0.762083 12.7916 0.810001C13.7666 0.854584 14.2958 1.0175 14.6483 1.15438C15.115 1.33563 15.4477 1.5523 15.7975 1.9023C16.1475 2.25231 16.3641 2.58564 16.5458 3.05232C16.6827 3.4044 16.8458 3.93357 16.8902 4.90858C16.9381 5.96276 16.9485 6.27943 16.9485 8.94821C16.9485 11.617 16.9381 11.9337 16.8902 12.9878C16.8456 13.9628 16.6827 14.492 16.5458 14.8441C16.3646 15.3108 16.1475 15.6431 15.7975 15.9929C15.4475 16.3429 15.1152 16.5595 14.6483 16.7408C14.2962 16.8783 13.7666 17.0408 12.7916 17.0854C11.7374 17.1333 11.4208 17.1437 8.75074 17.1437C6.0805 17.1437 5.76404 17.1333 4.70986 17.0854C3.73485 17.0404 3.20568 16.8775 2.85297 16.7406C2.38629 16.5593 2.05296 16.3427 1.70295 15.9927C1.35295 15.6427 1.13628 15.3102 0.954614 14.8433C0.817737 14.4912 0.65461 13.962 0.610235 12.987C0.562318 11.9328 0.552734 11.6162 0.552734 8.94571C0.552734 6.27527 0.562318 5.96026 0.610235 4.90609C0.654819 3.93107 0.817737 3.4019 0.954614 3.0494C1.13587 2.58273 1.35295 2.24939 1.70295 1.89939C2.05296 1.54938 2.38629 1.33271 2.85297 1.15105C3.20547 1.01354 3.73485 0.851043 4.70986 0.806251C5.63237 0.764584 5.98987 0.752083 7.85364 0.75V0.7525ZM14.0887 2.41293C13.4262 2.41293 12.8887 2.94981 12.8887 3.61253C12.8887 4.27504 13.4262 4.81254 14.0887 4.81254C14.7512 4.81254 15.2887 4.27504 15.2887 3.61253C15.2887 2.95002 14.7512 2.41252 14.0887 2.41252V2.41293ZM3.61527 8.9505C3.61527 6.1145 5.91455 3.81514 8.75053 3.81503C11.5866 3.81503 13.8854 6.11443 13.8854 8.9505C13.8854 11.7866 11.5868 14.0849 8.75074 14.0849C5.91467 14.0849 3.61527 11.7866 3.61527 8.9505Z" fill="#BBBBBB"/>
<path d="M8.75036 5.61719C10.5912 5.61719 12.0837 7.10949 12.0837 8.95056C12.0837 10.7914 10.5912 12.2839 8.75036 12.2839C6.9093 12.2839 5.41699 10.7914 5.41699 8.95056C5.41699 7.10949 6.9093 5.61719 8.75036 5.61719Z" fill="#BBBBBB"/>
</svg>
