<svg width="21" height="20" viewBox="0 0 21 20" fill="none" xmlns="http://www.w3.org/2000/svg">
<path fill-rule="evenodd" clip-rule="evenodd" d="M5.53028 2.58023C5.53028 3.8061 4.60754 4.78699 3.12593 4.78699H3.09877C1.67223 4.78699 0.75 3.8061 0.75 2.58023C0.75 1.32844 1.70032 0.375 3.15393 0.375C4.60754 0.375 5.50271 1.32844 5.53028 2.58023ZM5.25062 6.52954V19.2965H1.00146V6.52954H5.25062ZM20.5745 19.2966L20.5746 11.9764C20.5746 8.05491 18.4784 6.2298 15.6823 6.2298C13.4262 6.2298 12.4162 7.46896 11.8522 8.33826V6.52993H7.60254C7.65855 7.72791 7.60254 19.2969 7.60254 19.2969H11.8522V12.1668C11.8522 11.7852 11.8798 11.4046 11.9921 11.1314C12.2992 10.3691 12.9985 9.57989 14.1724 9.57989C15.7106 9.57989 16.3255 10.7506 16.3255 12.4662V19.2966H20.5745Z" fill="#BBBBBB"/>
</svg>
