<svg width="91" height="75" viewBox="0 0 91 75" fill="none" xmlns="http://www.w3.org/2000/svg">
<path d="M51.4 19.9L42.25 55H31.9L26.3 31.9L20.5 55H10.15L1.25 19.9H10.4L15.45 45.45L21.7 19.9H31.1L37.1 45.45L42.2 19.9H51.4ZM77.4379 37C79.4712 37.4333 81.1046 38.45 82.3379 40.05C83.5712 41.6167 84.1879 43.4167 84.1879 45.45C84.1879 48.3833 83.1546 50.7167 81.0879 52.45C79.0546 54.15 76.2046 55 72.5379 55H56.1879V19.9H71.9879C75.5546 19.9 78.3379 20.7167 80.3379 22.35C82.3712 23.9833 83.3879 26.2 83.3879 29C83.3879 31.0667 82.8379 32.7833 81.7379 34.15C80.6712 35.5167 79.2379 36.4667 77.4379 37ZM64.7379 34.1H70.3379C71.7379 34.1 72.8046 33.8 73.5379 33.2C74.3046 32.5667 74.6879 31.65 74.6879 30.45C74.6879 29.25 74.3046 28.3333 73.5379 27.7C72.8046 27.0667 71.7379 26.75 70.3379 26.75H64.7379V34.1ZM71.0379 48.1C72.4712 48.1 73.5712 47.7833 74.3379 47.15C75.1379 46.4833 75.5379 45.5333 75.5379 44.3C75.5379 43.0667 75.1212 42.1 74.2879 41.4C73.4879 40.7 72.3712 40.35 70.9379 40.35H64.7379V48.1H71.0379Z" fill="#498AFE"/>
<rect x="2" y="55" width="89" height="10" fill="#F8FAFF"/>
<path d="M8.016 57.416L6.456 63H5.136L4.088 59.024L2.992 63L1.68 63.008L0.176 57.416H1.376L2.36 61.752L3.496 57.416H4.744L5.816 61.728L6.808 57.416H8.016ZM11.4193 63.056C10.8966 63.056 10.4166 62.9333 9.97931 62.688C9.54198 62.4427 9.19531 62.104 8.93931 61.672C8.68331 61.2347 8.55531 60.7413 8.55531 60.192C8.55531 59.648 8.68331 59.16 8.93931 58.728C9.19531 58.2907 9.54198 57.9493 9.97931 57.704C10.4166 57.4587 10.8966 57.336 11.4193 57.336C11.9473 57.336 12.4273 57.4587 12.8593 57.704C13.2966 57.9493 13.6406 58.2907 13.8913 58.728C14.1473 59.16 14.2753 59.648 14.2753 60.192C14.2753 60.7413 14.1473 61.2347 13.8913 61.672C13.6406 62.104 13.2966 62.4427 12.8593 62.688C12.422 62.9333 11.942 63.056 11.4193 63.056ZM11.4193 62.056C11.7553 62.056 12.0513 61.9813 12.3073 61.832C12.5633 61.6773 12.7633 61.4587 12.9073 61.176C13.0513 60.8933 13.1233 60.5653 13.1233 60.192C13.1233 59.8187 13.0513 59.4933 12.9073 59.216C12.7633 58.9333 12.5633 58.7173 12.3073 58.568C12.0513 58.4187 11.7553 58.344 11.4193 58.344C11.0833 58.344 10.7846 58.4187 10.5233 58.568C10.2673 58.7173 10.0673 58.9333 9.92331 59.216C9.77931 59.4933 9.70731 59.8187 9.70731 60.192C9.70731 60.5653 9.77931 60.8933 9.92331 61.176C10.0673 61.4587 10.2673 61.6773 10.5233 61.832C10.7846 61.9813 11.0833 62.056 11.4193 62.056ZM18.0686 63L16.8366 60.824H16.3086V63H15.1886V57.416H17.2846C17.7166 57.416 18.0846 57.4933 18.3886 57.648C18.6926 57.7973 18.9192 58.0027 19.0686 58.264C19.2232 58.52 19.3006 58.808 19.3006 59.128C19.3006 59.496 19.1939 59.8293 18.9806 60.128C18.7672 60.4213 18.4499 60.624 18.0286 60.736L19.3646 63H18.0686ZM16.3086 59.984H17.2446C17.5486 59.984 17.7752 59.912 17.9246 59.768C18.0739 59.6187 18.1486 59.4133 18.1486 59.152C18.1486 58.896 18.0739 58.6987 17.9246 58.56C17.7752 58.416 17.5486 58.344 17.2446 58.344H16.3086V59.984ZM23.5456 63L21.5136 60.512V63H20.3936V57.416H21.5136V59.92L23.5456 57.416H24.8976L22.5936 60.184L24.9616 63H23.5456ZM29.8502 59.144C29.8502 59.4427 29.7782 59.7227 29.6342 59.984C29.4956 60.2453 29.2742 60.456 28.9702 60.616C28.6716 60.776 28.2929 60.856 27.8342 60.856H26.8982V63H25.7782V57.416H27.8342C28.2662 57.416 28.6342 57.4907 28.9382 57.64C29.2422 57.7893 29.4689 57.9947 29.6182 58.256C29.7729 58.5173 29.8502 58.8133 29.8502 59.144ZM27.7862 59.952C28.0956 59.952 28.3249 59.8827 28.4742 59.744C28.6236 59.6 28.6982 59.4 28.6982 59.144C28.6982 58.6 28.3942 58.328 27.7862 58.328H26.8982V59.952H27.7862ZM31.8454 62.112H33.6854V63H30.7254V57.416H31.8454V62.112ZM37.9013 61.936H35.6773L35.3093 63H34.1333L36.1413 57.408H37.4453L39.4533 63H38.2693L37.9013 61.936ZM37.5973 61.04L36.7893 58.704L35.9813 61.04H37.5973ZM40.0119 60.2C40.0119 59.6507 40.1345 59.16 40.3799 58.728C40.6305 58.2907 40.9692 57.952 41.3959 57.712C41.8279 57.4667 42.3105 57.344 42.8439 57.344C43.4679 57.344 44.0145 57.504 44.4839 57.824C44.9532 58.144 45.2812 58.5867 45.4679 59.152H44.1799C44.0519 58.8853 43.8705 58.6853 43.6359 58.552C43.4065 58.4187 43.1399 58.352 42.8359 58.352C42.5105 58.352 42.2199 58.4293 41.9639 58.584C41.7132 58.7333 41.5159 58.9467 41.3719 59.224C41.2332 59.5013 41.1639 59.8267 41.1639 60.2C41.1639 60.568 41.2332 60.8933 41.3719 61.176C41.5159 61.4533 41.7132 61.6693 41.9639 61.824C42.2199 61.9733 42.5105 62.048 42.8359 62.048C43.1399 62.048 43.4065 61.9813 43.6359 61.848C43.8705 61.7093 44.0519 61.5067 44.1799 61.24H45.4679C45.2812 61.8107 44.9532 62.256 44.4839 62.576C44.0199 62.8907 43.4732 63.048 42.8439 63.048C42.3105 63.048 41.8279 62.928 41.3959 62.688C40.9692 62.4427 40.6305 62.104 40.3799 61.672C40.1345 61.24 40.0119 60.7493 40.0119 60.2ZM47.6245 58.32V59.72H49.5045V60.608H47.6245V62.088H49.7445V63H46.5045V57.408H49.7445V58.32H47.6245ZM55.9966 60.136C56.3112 60.1947 56.5699 60.352 56.7726 60.608C56.9752 60.864 57.0766 61.1573 57.0766 61.488C57.0766 61.7867 57.0019 62.0507 56.8526 62.28C56.7086 62.504 56.4979 62.68 56.2206 62.808C55.9432 62.936 55.6152 63 55.2366 63H52.8286V57.416H55.1326C55.5112 57.416 55.8366 57.4773 56.1086 57.6C56.3859 57.7227 56.5939 57.8933 56.7326 58.112C56.8766 58.3307 56.9486 58.5787 56.9486 58.856C56.9486 59.1813 56.8606 59.4533 56.6846 59.672C56.5139 59.8907 56.2846 60.0453 55.9966 60.136ZM53.9486 59.72H54.9726C55.2392 59.72 55.4446 59.6613 55.5886 59.544C55.7326 59.4213 55.8046 59.248 55.8046 59.024C55.8046 58.8 55.7326 58.6267 55.5886 58.504C55.4446 58.3813 55.2392 58.32 54.9726 58.32H53.9486V59.72ZM55.0766 62.088C55.3486 62.088 55.5592 62.024 55.7086 61.896C55.8632 61.768 55.9406 61.5867 55.9406 61.352C55.9406 61.112 55.8606 60.9253 55.7006 60.792C55.5406 60.6533 55.3246 60.584 55.0526 60.584H53.9486V62.088H55.0766ZM60.6412 63.056C60.1185 63.056 59.6385 62.9333 59.2012 62.688C58.7639 62.4427 58.4172 62.104 58.1612 61.672C57.9052 61.2347 57.7772 60.7413 57.7772 60.192C57.7772 59.648 57.9052 59.16 58.1612 58.728C58.4172 58.2907 58.7639 57.9493 59.2012 57.704C59.6385 57.4587 60.1185 57.336 60.6412 57.336C61.1692 57.336 61.6492 57.4587 62.0812 57.704C62.5185 57.9493 62.8625 58.2907 63.1132 58.728C63.3692 59.16 63.4972 59.648 63.4972 60.192C63.4972 60.7413 63.3692 61.2347 63.1132 61.672C62.8625 62.104 62.5185 62.4427 62.0812 62.688C61.6439 62.9333 61.1639 63.056 60.6412 63.056ZM60.6412 62.056C60.9772 62.056 61.2732 61.9813 61.5292 61.832C61.7852 61.6773 61.9852 61.4587 62.1292 61.176C62.2732 60.8933 62.3452 60.5653 62.3452 60.192C62.3452 59.8187 62.2732 59.4933 62.1292 59.216C61.9852 58.9333 61.7852 58.7173 61.5292 58.568C61.2732 58.4187 60.9772 58.344 60.6412 58.344C60.3052 58.344 60.0065 58.4187 59.7452 58.568C59.4892 58.7173 59.2892 58.9333 59.1452 59.216C59.0012 59.4933 58.9292 59.8187 58.9292 60.192C58.9292 60.5653 59.0012 60.8933 59.1452 61.176C59.2892 61.4587 59.4892 61.6773 59.7452 61.832C60.0065 61.9813 60.3052 62.056 60.6412 62.056ZM67.0024 63.056C66.4798 63.056 65.9998 62.9333 65.5624 62.688C65.1251 62.4427 64.7784 62.104 64.5224 61.672C64.2664 61.2347 64.1384 60.7413 64.1384 60.192C64.1384 59.648 64.2664 59.16 64.5224 58.728C64.7784 58.2907 65.1251 57.9493 65.5624 57.704C65.9998 57.4587 66.4798 57.336 67.0024 57.336C67.5304 57.336 68.0104 57.4587 68.4424 57.704C68.8798 57.9493 69.2238 58.2907 69.4744 58.728C69.7304 59.16 69.8584 59.648 69.8584 60.192C69.8584 60.7413 69.7304 61.2347 69.4744 61.672C69.2238 62.104 68.8798 62.4427 68.4424 62.688C68.0051 62.9333 67.5251 63.056 67.0024 63.056ZM67.0024 62.056C67.3384 62.056 67.6344 61.9813 67.8904 61.832C68.1464 61.6773 68.3464 61.4587 68.4904 61.176C68.6344 60.8933 68.7064 60.5653 68.7064 60.192C68.7064 59.8187 68.6344 59.4933 68.4904 59.216C68.3464 58.9333 68.1464 58.7173 67.8904 58.568C67.6344 58.4187 67.3384 58.344 67.0024 58.344C66.6664 58.344 66.3678 58.4187 66.1064 58.568C65.8504 58.7173 65.6504 58.9333 65.5064 59.216C65.3624 59.4933 65.2904 59.8187 65.2904 60.192C65.2904 60.5653 65.3624 60.8933 65.5064 61.176C65.6504 61.4587 65.8504 61.6773 66.1064 61.832C66.3678 61.9813 66.6664 62.056 67.0024 62.056ZM73.9237 63L71.8917 60.512V63H70.7717V57.416H71.8917V59.92L73.9237 57.416H75.2757L72.9717 60.184L75.3397 63H73.9237ZM77.2764 57.416V63H76.1564V57.416H77.2764ZM83.2389 63H82.1189L79.5829 59.168V63H78.4629V57.408H79.5829L82.1189 61.248V57.408H83.2389V63ZM88.3137 59.096C88.1857 58.8613 88.0097 58.6827 87.7857 58.56C87.5617 58.4373 87.3004 58.376 87.0017 58.376C86.6711 58.376 86.3777 58.4507 86.1217 58.6C85.8657 58.7493 85.6657 58.9627 85.5217 59.24C85.3777 59.5173 85.3057 59.8373 85.3057 60.2C85.3057 60.5733 85.3777 60.8987 85.5217 61.176C85.6711 61.4533 85.8764 61.6667 86.1377 61.816C86.3991 61.9653 86.7031 62.04 87.0497 62.04C87.4764 62.04 87.8257 61.928 88.0977 61.704C88.3697 61.4747 88.5484 61.1573 88.6337 60.752H86.7137V59.896H89.7377V60.872C89.6631 61.2613 89.5031 61.6213 89.2577 61.952C89.0124 62.2827 88.6951 62.5493 88.3057 62.752C87.9217 62.9493 87.4897 63.048 87.0097 63.048C86.4711 63.048 85.9831 62.928 85.5457 62.688C85.1137 62.4427 84.7724 62.104 84.5217 61.672C84.2764 61.24 84.1537 60.7493 84.1537 60.2C84.1537 59.6507 84.2764 59.16 84.5217 58.728C84.7724 58.2907 85.1137 57.952 85.5457 57.712C85.9831 57.4667 86.4684 57.344 87.0017 57.344C87.6311 57.344 88.1777 57.4987 88.6417 57.808C89.1057 58.112 89.4257 58.5413 89.6017 59.096H88.3137Z" fill="#498AFE"/>
</svg>
