<svg width="163" height="47" viewBox="0 0 163 47" fill="none" xmlns="http://www.w3.org/2000/svg">
<path d="M43.46 6.9H47.048L49.555 18.262L52.66 6.9H55.88L59.054 18.308L61.768 6.9H65.08L60.94 23H57.49L54.155 11.5L51.05 23H47.6L43.46 6.9ZM71.7545 23.276C70.9265 23.276 70.1368 23.1533 69.3855 22.908C68.6495 22.6473 68.0055 22.2563 67.4535 21.735C66.9015 21.2137 66.4645 20.562 66.1425 19.78C65.8205 18.998 65.6595 18.078 65.6595 17.02V16.56C65.6595 15.5633 65.8205 14.6893 66.1425 13.938C66.4645 13.1867 66.9015 12.558 67.4535 12.052C68.0055 11.546 68.6495 11.1703 69.3855 10.925C70.1368 10.6643 70.9265 10.534 71.7545 10.534C72.5825 10.534 73.3645 10.6643 74.1005 10.925C74.8365 11.1703 75.4805 11.546 76.0325 12.052C76.5998 12.558 77.0445 13.1867 77.3665 13.938C77.6885 14.6893 77.8495 15.5633 77.8495 16.56V17.02C77.8495 18.0627 77.6885 18.975 77.3665 19.757C77.0445 20.539 76.5998 21.1907 76.0325 21.712C75.4805 22.2333 74.8365 22.6243 74.1005 22.885C73.3645 23.1457 72.5825 23.276 71.7545 23.276ZM71.7545 20.7C72.6132 20.7 73.3262 20.3933 73.8935 19.78C74.4762 19.1667 74.7675 18.2467 74.7675 17.02V16.56C74.7675 15.4407 74.4762 14.5897 73.8935 14.007C73.3262 13.409 72.6132 13.11 71.7545 13.11C70.8805 13.11 70.1598 13.409 69.5925 14.007C69.0252 14.5897 68.7415 15.4407 68.7415 16.56V17.02C68.7415 18.262 69.0252 19.1897 69.5925 19.803C70.1598 20.401 70.8805 20.7 71.7545 20.7ZM80.0255 10.81H82.8315V12.604C82.9388 12.3587 83.0922 12.1133 83.2915 11.868C83.4908 11.6073 83.7285 11.385 84.0045 11.201C84.2805 11.0017 84.5795 10.8407 84.9015 10.718C85.2388 10.5953 85.6068 10.534 86.0055 10.534C86.2968 10.534 86.5422 10.5493 86.7415 10.58C86.9562 10.6107 87.0942 10.6413 87.1555 10.672V13.363C87.0022 13.3017 86.8028 13.248 86.5575 13.202C86.3275 13.1407 86.0132 13.11 85.6145 13.11C85.1545 13.11 84.7635 13.1867 84.4415 13.34C84.1195 13.4933 83.8512 13.7003 83.6365 13.961C83.4372 14.2063 83.2915 14.4977 83.1995 14.835C83.1075 15.1723 83.0615 15.525 83.0615 15.893V23H80.0255V10.81ZM88.9874 6.9H92.0234V15.824L96.5314 10.81H100.027L95.3354 16.031L100.487 23H96.9454L93.4034 18.032L92.0234 19.481V23H88.9874V6.9ZM102.217 10.81H105.046V12.604C105.353 12.052 105.836 11.569 106.495 11.155C107.154 10.741 107.99 10.534 109.002 10.534C110.627 10.534 111.892 11.04 112.797 12.052C113.717 13.0487 114.177 14.5513 114.177 16.56V17.02C114.177 19.1207 113.709 20.6923 112.774 21.735C111.854 22.7623 110.597 23.276 109.002 23.276C108.174 23.276 107.438 23.0997 106.794 22.747C106.165 22.379 105.652 21.9037 105.253 21.321V27.6H102.217V10.81ZM108.289 20.7C109.086 20.7 109.753 20.401 110.29 19.803C110.827 19.1897 111.095 18.262 111.095 17.02V16.56C111.095 15.41 110.834 14.5513 110.313 13.984C109.792 13.4013 109.117 13.11 108.289 13.11C107.415 13.11 106.687 13.363 106.104 13.869C105.537 14.3597 105.253 15.1033 105.253 16.1V17.48C105.253 18.5687 105.529 19.3813 106.081 19.918C106.648 20.4393 107.384 20.7 108.289 20.7ZM120.507 23.138C119.802 23.138 119.196 23.0767 118.69 22.954C118.184 22.816 117.763 22.586 117.425 22.264C117.103 21.942 116.866 21.5127 116.712 20.976C116.559 20.424 116.482 19.7417 116.482 18.929V6.9H119.518V18.561C119.518 19.343 119.633 19.872 119.863 20.148C120.093 20.424 120.538 20.562 121.197 20.562C121.366 20.562 121.512 20.562 121.634 20.562C121.757 20.5467 121.88 20.5313 122.002 20.516V23.069C121.88 23.0997 121.657 23.115 121.335 23.115C121.013 23.1303 120.737 23.138 120.507 23.138ZM127.616 23.276C126.957 23.276 126.374 23.184 125.868 23C125.362 22.8007 124.933 22.5323 124.58 22.195C124.227 21.8423 123.959 21.436 123.775 20.976C123.591 20.5007 123.499 19.987 123.499 19.435C123.499 16.9817 124.956 15.755 127.869 15.755H131.503V15.18C131.503 14.3827 131.319 13.823 130.951 13.501C130.598 13.179 130.031 13.018 129.249 13.018C128.559 13.018 128.061 13.1407 127.754 13.386C127.447 13.616 127.271 13.9073 127.225 14.26H124.189C124.22 13.7387 124.35 13.248 124.58 12.788C124.825 12.328 125.163 11.937 125.592 11.615C126.037 11.2777 126.573 11.017 127.202 10.833C127.831 10.6337 128.551 10.534 129.364 10.534C130.146 10.534 130.851 10.6183 131.48 10.787C132.124 10.9557 132.668 11.2317 133.113 11.615C133.573 11.983 133.926 12.466 134.171 13.064C134.416 13.662 134.539 14.3827 134.539 15.226V19.895C134.539 20.539 134.547 21.1063 134.562 21.597C134.593 22.0723 134.639 22.54 134.7 23H131.871C131.81 22.6627 131.771 22.4097 131.756 22.241C131.756 22.057 131.756 21.7887 131.756 21.436C131.419 21.9267 130.905 22.356 130.215 22.724C129.54 23.092 128.674 23.276 127.616 23.276ZM128.559 20.93C128.927 20.93 129.287 20.884 129.64 20.792C129.993 20.6847 130.307 20.5313 130.583 20.332C130.859 20.1173 131.081 19.849 131.25 19.527C131.419 19.205 131.503 18.8293 131.503 18.4V17.825H128.444C127.861 17.825 127.401 17.963 127.064 18.239C126.742 18.4997 126.581 18.86 126.581 19.32C126.581 19.8107 126.75 20.2017 127.087 20.493C127.424 20.7843 127.915 20.93 128.559 20.93ZM142.594 23.276C141.75 23.276 140.961 23.1457 140.225 22.885C139.504 22.6243 138.875 22.2333 138.339 21.712C137.802 21.1907 137.38 20.539 137.074 19.757C136.767 18.975 136.614 18.0627 136.614 17.02V16.56C136.614 15.5787 136.775 14.7123 137.097 13.961C137.419 13.2097 137.848 12.581 138.385 12.075C138.937 11.569 139.573 11.1857 140.294 10.925C141.014 10.6643 141.781 10.534 142.594 10.534C143.452 10.534 144.211 10.649 144.871 10.879C145.545 11.109 146.113 11.4233 146.573 11.822C147.033 12.2207 147.393 12.6883 147.654 13.225C147.914 13.7617 148.068 14.3367 148.114 14.95H145.032C144.909 14.3827 144.656 13.938 144.273 13.616C143.905 13.2787 143.345 13.11 142.594 13.11C142.195 13.11 141.819 13.179 141.467 13.317C141.129 13.455 140.823 13.6697 140.547 13.961C140.286 14.237 140.079 14.5897 139.926 15.019C139.772 15.4483 139.696 15.962 139.696 16.56V17.02C139.696 17.664 139.765 18.2237 139.903 18.699C140.056 19.159 140.263 19.5423 140.524 19.849C140.784 20.1403 141.091 20.355 141.444 20.493C141.796 20.631 142.18 20.7 142.594 20.7C143.192 20.7 143.705 20.5467 144.135 20.24C144.579 19.918 144.878 19.458 145.032 18.86H148.114C148.037 19.5347 147.845 20.148 147.539 20.7C147.247 21.2367 146.856 21.6967 146.366 22.08C145.89 22.4633 145.331 22.7623 144.687 22.977C144.043 23.1763 143.345 23.276 142.594 23.276ZM155.713 23.276C154.885 23.276 154.096 23.1533 153.344 22.908C152.608 22.6473 151.964 22.264 151.412 21.758C150.86 21.2367 150.423 20.585 150.101 19.803C149.779 19.0057 149.618 18.078 149.618 17.02V16.56C149.618 15.548 149.772 14.6663 150.078 13.915C150.385 13.1637 150.807 12.5427 151.343 12.052C151.88 11.546 152.501 11.1703 153.206 10.925C153.912 10.6643 154.671 10.534 155.483 10.534C157.4 10.534 158.857 11.04 159.853 12.052C160.85 13.064 161.348 14.5283 161.348 16.445V17.733H152.723C152.739 18.2697 152.831 18.7373 152.999 19.136C153.168 19.5193 153.39 19.8337 153.666 20.079C153.942 20.3243 154.257 20.5083 154.609 20.631C154.977 20.7383 155.345 20.792 155.713 20.792C156.495 20.792 157.086 20.677 157.484 20.447C157.883 20.217 158.167 19.8797 158.335 19.435H161.118C160.873 20.7077 160.267 21.666 159.301 22.31C158.335 22.954 157.139 23.276 155.713 23.276ZM155.598 13.018C155.246 13.018 154.893 13.064 154.54 13.156C154.203 13.248 153.904 13.3937 153.643 13.593C153.383 13.7923 153.168 14.0607 152.999 14.398C152.831 14.7353 152.739 15.1417 152.723 15.617H158.404C158.389 15.111 158.305 14.6893 158.151 14.352C158.013 14.0147 157.814 13.7463 157.553 13.547C157.308 13.3477 157.017 13.2097 156.679 13.133C156.342 13.0563 155.982 13.018 155.598 13.018Z" fill="#1354FE"/>
<path d="M59.4396 25.9H66.3396C68.1489 25.9 69.4829 26.2833 70.3416 27.05C71.2003 27.8013 71.6296 28.8517 71.6296 30.201C71.6296 31.029 71.4226 31.742 71.0086 32.34C70.6099 32.9227 70.0579 33.3443 69.3526 33.605C70.2726 33.8197 70.9933 34.2567 71.5146 34.916C72.0513 35.56 72.3196 36.4033 72.3196 37.446C72.3196 38.136 72.2123 38.7647 71.9976 39.332C71.7829 39.884 71.4456 40.3593 70.9856 40.758C70.5409 41.1567 69.9583 41.4633 69.2376 41.678C68.5169 41.8927 67.6506 42 66.6386 42H59.4396V25.9ZM66.0176 39.378C67.0909 39.378 67.8346 39.194 68.2486 38.826C68.6626 38.458 68.8696 37.9137 68.8696 37.193C68.8696 36.4723 68.6626 35.9127 68.2486 35.514C67.8346 35.1 67.0833 34.893 65.9946 34.893H62.8896V39.378H66.0176ZM65.6496 32.547C66.5849 32.547 67.2366 32.363 67.6046 31.995C67.9879 31.627 68.1796 31.1287 68.1796 30.5C68.1796 29.856 67.9956 29.3653 67.6276 29.028C67.2596 28.6907 66.6079 28.522 65.6726 28.522H62.8896V32.547H65.6496ZM80.1324 42.276C79.3044 42.276 78.5148 42.1533 77.7634 41.908C77.0274 41.6473 76.3834 41.2563 75.8314 40.735C75.2794 40.2137 74.8424 39.562 74.5204 38.78C74.1984 37.998 74.0374 37.078 74.0374 36.02V35.56C74.0374 34.5633 74.1984 33.6893 74.5204 32.938C74.8424 32.1867 75.2794 31.558 75.8314 31.052C76.3834 30.546 77.0274 30.1703 77.7634 29.925C78.5148 29.6643 79.3044 29.534 80.1324 29.534C80.9604 29.534 81.7424 29.6643 82.4784 29.925C83.2144 30.1703 83.8584 30.546 84.4104 31.052C84.9778 31.558 85.4224 32.1867 85.7444 32.938C86.0664 33.6893 86.2274 34.5633 86.2274 35.56V36.02C86.2274 37.0627 86.0664 37.975 85.7444 38.757C85.4224 39.539 84.9778 40.1907 84.4104 40.712C83.8584 41.2333 83.2144 41.6243 82.4784 41.885C81.7424 42.1457 80.9604 42.276 80.1324 42.276ZM80.1324 39.7C80.9911 39.7 81.7041 39.3933 82.2714 38.78C82.8541 38.1667 83.1454 37.2467 83.1454 36.02V35.56C83.1454 34.4407 82.8541 33.5897 82.2714 33.007C81.7041 32.409 80.9911 32.11 80.1324 32.11C79.2584 32.11 78.5378 32.409 77.9704 33.007C77.4031 33.5897 77.1194 34.4407 77.1194 35.56V36.02C77.1194 37.262 77.4031 38.1897 77.9704 38.803C78.5378 39.401 79.2584 39.7 80.1324 39.7ZM93.9234 42.276C93.0954 42.276 92.3058 42.1533 91.5544 41.908C90.8184 41.6473 90.1744 41.2563 89.6224 40.735C89.0704 40.2137 88.6334 39.562 88.3114 38.78C87.9894 37.998 87.8284 37.078 87.8284 36.02V35.56C87.8284 34.5633 87.9894 33.6893 88.3114 32.938C88.6334 32.1867 89.0704 31.558 89.6224 31.052C90.1744 30.546 90.8184 30.1703 91.5544 29.925C92.3058 29.6643 93.0954 29.534 93.9234 29.534C94.7514 29.534 95.5334 29.6643 96.2694 29.925C97.0054 30.1703 97.6494 30.546 98.2014 31.052C98.7688 31.558 99.2134 32.1867 99.5354 32.938C99.8574 33.6893 100.018 34.5633 100.018 35.56V36.02C100.018 37.0627 99.8574 37.975 99.5354 38.757C99.2134 39.539 98.7688 40.1907 98.2014 40.712C97.6494 41.2333 97.0054 41.6243 96.2694 41.885C95.5334 42.1457 94.7514 42.276 93.9234 42.276ZM93.9234 39.7C94.7821 39.7 95.4951 39.3933 96.0624 38.78C96.6451 38.1667 96.9364 37.2467 96.9364 36.02V35.56C96.9364 34.4407 96.6451 33.5897 96.0624 33.007C95.4951 32.409 94.7821 32.11 93.9234 32.11C93.0494 32.11 92.3288 32.409 91.7614 33.007C91.1941 33.5897 90.9104 34.4407 90.9104 35.56V36.02C90.9104 37.262 91.1941 38.1897 91.7614 38.803C92.3288 39.401 93.0494 39.7 93.9234 39.7ZM102.194 25.9H105.23V34.824L109.738 29.81H113.234L108.542 35.031L113.694 42H110.152L106.61 37.032L105.23 38.481V42H102.194V25.9ZM115.654 29.81H118.69V42H115.654V29.81ZM117.172 28.66C116.635 28.66 116.191 28.4913 115.838 28.154C115.501 27.8013 115.332 27.3567 115.332 26.82C115.332 26.2833 115.501 25.8463 115.838 25.509C116.191 25.1563 116.635 24.98 117.172 24.98C117.709 24.98 118.146 25.1563 118.483 25.509C118.836 25.8463 119.012 26.2833 119.012 26.82C119.012 27.3567 118.836 27.8013 118.483 28.154C118.146 28.4913 117.709 28.66 117.172 28.66ZM121.691 29.81H124.497V31.604C124.788 31.052 125.256 30.569 125.9 30.155C126.559 29.741 127.441 29.534 128.545 29.534C130.032 29.534 131.136 29.9327 131.857 30.73C132.593 31.5273 132.961 32.6773 132.961 34.18V42H129.925V34.87C129.925 33.95 129.733 33.26 129.35 32.8C128.982 32.34 128.345 32.11 127.441 32.11C126.95 32.11 126.536 32.1867 126.199 32.34C125.861 32.4933 125.578 32.7003 125.348 32.961C125.133 33.2063 124.972 33.4977 124.865 33.835C124.773 34.157 124.727 34.502 124.727 34.87V42H121.691V29.81ZM140.906 46.876C139.94 46.876 139.12 46.784 138.445 46.6C137.786 46.4313 137.242 46.1783 136.812 45.841C136.398 45.519 136.084 45.128 135.869 44.668C135.67 44.208 135.547 43.702 135.501 43.15H138.583C138.629 43.3187 138.698 43.4797 138.79 43.633C138.882 43.7863 139.02 43.9243 139.204 44.047C139.388 44.185 139.618 44.2923 139.894 44.369C140.17 44.4457 140.508 44.484 140.906 44.484C142.946 44.484 143.965 43.5027 143.965 41.54V40.091C143.567 40.6737 143.045 41.149 142.401 41.517C141.773 41.8697 141.044 42.046 140.216 42.046C138.622 42.046 137.357 41.5323 136.421 40.505C135.501 39.4777 135.041 37.9443 135.041 35.905V35.445C135.041 33.5437 135.509 32.087 136.444 31.075C137.38 30.0477 138.637 29.534 140.216 29.534C141.228 29.534 142.064 29.741 142.723 30.155C143.383 30.569 143.866 31.052 144.172 31.604V29.81H147.001V41.31C147.001 43.1193 146.495 44.4993 145.483 45.45C144.487 46.4007 142.961 46.876 140.906 46.876ZM140.929 39.47C141.834 39.47 142.562 39.2093 143.114 38.688C143.682 38.1667 143.965 37.3923 143.965 36.365V34.985C143.965 34.0497 143.674 33.3367 143.091 32.846C142.524 32.3553 141.803 32.11 140.929 32.11C140.101 32.11 139.427 32.3937 138.905 32.961C138.384 33.5283 138.123 34.3563 138.123 35.445V35.905C138.123 37.0857 138.392 37.975 138.928 38.573C139.465 39.171 140.132 39.47 140.929 39.47Z" fill="#1354FE"/>
<circle cx="20" cy="26" r="20" fill="#1354FE"/>
<path d="M19.1236 10.0199C16.2404 10.2092 13.4392 11.2017 11.0754 12.869C10.2953 13.4175 9.67257 13.9486 8.95071 14.6755C8.40985 15.2197 8.04569 15.6332 7.64274 16.1556C5.57628 18.8393 4.40838 22.1063 4.30495 25.4865L4.29202 25.9501H4.58076C4.74022 25.9501 4.96216 25.9566 5.07637 25.9631L5.28323 25.9784L5.29616 25.5235C5.33926 24.0739 5.61938 22.5133 6.06973 21.2052L6.14084 20.9984H9.17912H12.2174L12.2239 21.9931L12.2282 22.99L13.7107 22.9943L15.191 23.0008L15.1975 24.4961L15.2018 25.9936H13.2194H11.237V27.9677L11.2348 29.9441L9.23515 31.6635C8.13619 32.6082 7.22902 33.383 7.21825 33.383C7.19454 33.383 6.78082 32.5733 6.61275 32.1968C6.44036 31.8115 6.23781 31.3001 6.09775 30.8865C5.97708 30.5317 5.7422 29.7351 5.7422 29.6807C5.7422 29.6633 5.77022 29.6089 5.80685 29.561C6.0762 29.1844 6.01371 28.612 5.66463 28.279C5.33495 27.9634 4.80486 27.9155 4.44501 28.1658C3.92139 28.5293 3.84813 29.2563 4.28771 29.7046C4.39976 29.8178 4.60447 29.9397 4.72298 29.9658C4.78547 29.9789 4.79193 29.9898 4.83719 30.1574C5.41036 32.3143 6.4813 34.4191 7.88624 36.1472C10.3147 39.1357 13.7301 41.1403 17.4881 41.7823C18.4491 41.9478 19.0999 42 20.1471 42C20.9767 42 21.2891 41.9848 21.9894 41.9021C25.2648 41.5168 28.3741 40.0868 30.8198 37.8362C32.8152 36.0014 34.3322 33.6486 35.1855 31.0606C35.4979 30.1138 35.7199 29.1431 35.8556 28.1397C35.9698 27.2887 35.9806 27.0797 35.9892 25.4865L36 23.9912H32.5286H29.0572V22.99V21.9887H26.4758H23.8943L23.6831 21.4925C23.5646 21.2204 23.4655 20.9919 23.4633 20.9854C23.459 20.9766 24.0473 20.3019 24.7691 19.4857L26.0836 17.9991V15.1304C26.0836 13.091 26.09 12.2595 26.1073 12.2595C26.1525 12.2595 26.7473 12.5447 27.12 12.7471C29.8416 14.2119 32.0158 16.4559 33.4099 19.2354C33.6189 19.6533 33.884 20.2432 33.884 20.2932C33.884 20.3041 33.8517 20.3563 33.8107 20.4107C33.6814 20.5805 33.6383 20.7263 33.6362 20.9984C33.6362 21.2291 33.6383 21.2444 33.7138 21.4033C33.9055 21.8059 34.2374 22.0062 34.6769 21.9844C34.8472 21.9757 34.8903 21.9648 35.0368 21.893C35.819 21.5034 35.7759 20.3955 34.9678 20.0625L34.8493 20.0146L34.7696 19.8209C34.1361 18.2755 33.1944 16.7498 32.061 15.433C31.727 15.0455 30.8673 14.188 30.4708 13.8484C27.801 11.5543 24.6183 10.2528 21.1167 10.0177C20.7397 9.99375 19.5157 9.99375 19.1236 10.0199ZM21.4938 11.0494C22.2049 11.1234 22.7135 11.2039 23.3685 11.3497C23.7629 11.4368 24.545 11.6545 24.8984 11.7763L25.0816 11.8395L25.0881 14.669L25.0924 17.5007L24.043 18.7413L22.9914 19.9841H20.5737L18.1539 19.9863V18.4954V17.0044H17.1735H16.193V14.2663V11.526L16.555 11.4368C17.3932 11.2279 18.2616 11.0886 19.1666 11.0189C19.5631 10.9884 21.106 11.0102 21.4938 11.0494ZM15.1975 14.4383L15.191 16.9936L13.7107 17.0001L12.2282 17.0044V18.4954V19.9863H9.38383C7.81944 19.9863 6.53948 19.982 6.53948 19.9754C6.53948 19.9428 6.88425 19.218 7.03293 18.9416C8.55207 16.0968 10.8448 13.8724 13.6805 12.4881C14.2666 12.2008 15.1522 11.8373 15.1867 11.8656C15.1953 11.8743 15.1997 13.0322 15.1975 14.4383ZM17.1799 19.9907L17.1842 21.9887H15.2018H13.2194V19.9863V17.9839L15.1975 17.9882L17.1735 17.9948L17.1799 19.9907ZM22.4075 21.0463C22.4247 21.0811 22.5885 21.4577 22.7738 21.8864L23.1099 22.6678V25.3319V27.996H24.5968H26.0836V29.4086C26.0836 30.9736 26.0793 31.0497 25.9327 31.5547C25.519 32.9869 24.4696 34.0273 23.1574 34.3081C22.8858 34.3668 22.401 34.3886 22.1597 34.3538C21.9464 34.3211 21.5283 34.1862 21.2999 34.073L21.1383 33.9925L21.1318 31.9944L21.1275 29.9985H18.1647H15.2018V30.806C15.2018 31.5395 15.1997 31.6135 15.1673 31.6004C15.1178 31.5808 12.5083 30.1073 12.4437 30.0638C12.4027 30.0355 12.3682 29.9615 12.3101 29.7765L12.2282 29.5283V28.2616V26.9948H14.2106H16.193V24.9924V22.99H17.1735H18.1539V22.004C18.1539 21.4598 18.1604 21.0093 18.169 21.0028C18.1754 20.9941 19.1257 20.9875 20.2785 20.9875H22.3752L22.4075 21.0463ZM28.066 24.9924V26.9948H26.0836H24.1012V25.0076C24.1012 23.9128 24.1076 23.0117 24.1162 23.0052C24.1227 22.9965 25.0148 22.99 26.0987 22.99H28.066V24.9924ZM35.0045 25.7477C35.0045 26.1656 34.9937 26.6662 34.9829 26.8642C34.8041 29.8418 33.7805 32.656 32.0136 35.0285C31.2487 36.058 30.2488 37.081 29.2404 37.8689C26.2323 40.2174 22.4053 41.3253 18.6495 40.9335C16.1758 40.6745 13.8227 39.8082 11.7864 38.4043C11.015 37.8733 10.4332 37.3901 9.7523 36.7131C9.00243 35.9688 8.44433 35.2984 7.87546 34.4648L7.73756 34.2623L7.81297 34.2014C7.85391 34.1666 8.70506 33.4331 9.70705 32.569L11.5279 31.0019L11.7951 30.9997H12.0623L13.6331 31.8855L15.2018 32.7736V34.3886V36.0058H18.1647H21.1275V35.5792V35.1526L21.1771 35.1634C21.2029 35.1678 21.3171 35.1983 21.4292 35.2309C21.7503 35.3202 22.0476 35.3572 22.442 35.3572C23.1336 35.3572 23.7219 35.2091 24.3684 34.8783C25.0213 34.5431 25.5557 34.0795 26.0362 33.4331C26.5361 32.7605 26.7947 32.2577 26.9433 31.6635C27.0619 31.1956 27.0619 31.2043 27.0748 29.5523L27.0856 28.0069L28.0725 28.0004L29.0572 27.996V26.5095C29.0572 25.6911 29.0637 25.0142 29.0723 25.0076C29.0788 24.9989 30.4169 24.9924 32.0459 24.9924H35.0045V25.7477ZM20.1536 33.0065L20.1579 35.0046H18.1754H16.193V33.0021V30.9997L18.1711 31.004L20.1471 31.0106L20.1536 33.0065Z" fill="white" stroke="white" stroke-width="0.1"/>
</svg>
