<svg width="30" height="30" viewBox="0 0 30 30" fill="none" xmlns="http://www.w3.org/2000/svg">
<path fill-rule="evenodd" clip-rule="evenodd" d="M15 11.875C16.7261 11.875 18.125 13.2739 18.125 15C18.125 16.7261 16.7261 18.125 15 18.125C13.2739 18.125 11.875 16.7261 11.875 15C11.875 13.2739 13.2739 11.875 15 11.875Z" stroke="#BBBBBB" strokeWidth="2" strokeLinecap="round" strokeLinejoin="round"/>
<path fill-rule="evenodd" clip-rule="evenodd" d="M25.21 9.06281V9.06281C24.3556 7.57249 22.464 7.06255 20.9856 7.92315C19.6997 8.67017 18.0926 7.73548 18.0926 6.24022C18.0926 4.52024 16.7073 3.125 14.9997 3.125V3.125C13.2921 3.125 11.9068 4.52024 11.9068 6.24022C11.9068 7.73548 10.2997 8.67017 9.01499 7.92315C7.53536 7.06255 5.64384 7.57249 4.78941 9.06281C3.9362 10.5531 4.44249 12.4583 5.92212 13.3177C7.20683 14.0659 7.20683 15.9341 5.92212 16.6823C4.44249 17.5429 3.9362 19.4481 4.78941 20.9372C5.64384 22.4275 7.53536 22.9375 9.01377 22.0781H9.01499C10.2997 21.3298 11.9068 22.2645 11.9068 23.7598V23.7598C11.9068 25.4798 13.2921 26.875 14.9997 26.875V26.875C16.7073 26.875 18.0926 25.4798 18.0926 23.7598V23.7598C18.0926 22.2645 19.6997 21.3298 20.9856 22.0781C22.464 22.9375 24.3556 22.4275 25.21 20.9372C26.0644 19.4481 25.5569 17.5429 24.0785 16.6823H24.0773C22.7926 15.9341 22.7926 14.0659 24.0785 13.3177C25.5569 12.4583 26.0644 10.5531 25.21 9.06281Z" stroke="#BBBBBB" strokeWidth="2" strokeLinecap="round" strokeLinejoin="round"/>
</svg>
