<svg width="24" height="24" viewBox="0 0 24 24" fill="none" xmlns="http://www.w3.org/2000/svg">
<path fill-rule="evenodd" clip-rule="evenodd" d="M6.615 0.333252H16.73C20.685 0.333252 23.3333 3.10992 23.3333 7.23992V16.7728C23.3333 20.8899 20.685 23.6666 16.73 23.6666H6.615C2.66 23.6666 0 20.8899 0 16.7728V7.23992C0 3.10992 2.66 0.333252 6.615 0.333252ZM11.0017 15.4883L16.5433 9.94658C16.94 9.54992 16.94 8.90825 16.5433 8.49992C16.1467 8.10325 15.4933 8.10325 15.0967 8.49992L10.2783 13.3183L8.23667 11.2766C7.84 10.8799 7.18667 10.8799 6.79 11.2766C6.39333 11.6733 6.39333 12.3149 6.79 12.7233L9.56667 15.4883C9.765 15.6866 10.0217 15.7799 10.2783 15.7799C10.5467 15.7799 10.8033 15.6866 11.0017 15.4883Z" fill="#F4F4F4"/>
</svg>
