<svg width="19" height="16" viewBox="0 0 19 16" fill="none" xmlns="http://www.w3.org/2000/svg">
<path d="M9.18844 4.24023L9.22779 4.88903L8.57202 4.80958C6.18505 4.50505 4.09973 3.47228 2.32917 1.73775L1.46356 0.877107L1.24061 1.51266C0.768457 2.92941 1.07011 4.4256 2.05375 5.43189C2.57836 5.988 2.46032 6.06745 1.55537 5.73643C1.24061 5.6305 0.965186 5.55106 0.938955 5.59078C0.847149 5.68347 1.16191 6.88837 1.4111 7.36503C1.7521 8.02706 2.44721 8.67586 3.20789 9.05983L3.85054 9.36437L3.08985 9.37761C2.3554 9.37761 2.32917 9.39085 2.40786 9.66891C2.67017 10.5295 3.70627 11.4432 4.86041 11.8404L5.67356 12.1184L4.96533 12.5421C3.91611 13.1512 2.68328 13.4955 1.45045 13.5219C0.860264 13.5352 0.375 13.5881 0.375 13.6279C0.375 13.7603 1.97506 14.5017 2.90624 14.793C5.69979 15.6537 9.01794 15.2829 11.5098 13.8132C13.2804 12.7672 15.051 10.6884 15.8772 8.67586C16.3231 7.60336 16.769 5.64374 16.769 4.70366C16.769 4.09459 16.8084 4.01514 17.5428 3.28691C17.9756 2.86321 18.3822 2.39978 18.4609 2.26738C18.5921 2.0158 18.5789 2.0158 17.9101 2.2409C16.7953 2.63812 16.6379 2.58515 17.1887 1.98932C17.5953 1.56562 18.0806 0.797664 18.0806 0.572572C18.0806 0.53285 17.8838 0.599054 17.6609 0.71822C17.4248 0.850626 16.9002 1.04924 16.5067 1.1684L15.7985 1.39349L15.1559 0.956551C14.8018 0.71822 14.3034 0.453406 14.0411 0.373962C13.3722 0.188593 12.3492 0.215074 11.7459 0.426925C10.1065 1.02275 9.0704 2.55867 9.18844 4.24023Z" fill="#BBBBBB"/>
</svg>
