<svg width="18" height="18" viewBox="0 0 18 18" fill="none" xmlns="http://www.w3.org/2000/svg">
<path fill-rule="evenodd" clip-rule="evenodd" d="M9 7.125C10.0357 7.125 10.875 7.96434 10.875 9C10.875 10.0357 10.0357 10.875 9 10.875C7.96434 10.875 7.125 10.0357 7.125 9C7.125 7.96434 7.96434 7.125 9 7.125Z" stroke="#BBBBBB" strokeWidth="1.5" strokeLinecap="round" strokeLinejoin="round"/>
<path fill-rule="evenodd" clip-rule="evenodd" d="M15.126 5.43769V5.43769C14.6133 4.54349 13.4784 4.23753 12.5914 4.75389C11.8198 5.2021 10.8556 4.64129 10.8556 3.74413C10.8556 2.71215 10.0244 1.875 8.99982 1.875V1.875C7.97524 1.875 7.1441 2.71215 7.1441 3.74413C7.1441 4.64129 6.17982 5.2021 5.409 4.75389C4.52122 4.23753 3.38631 4.54349 2.87365 5.43769C2.36172 6.33188 2.66549 7.47499 3.55327 7.99061C4.3241 8.43956 4.3241 9.56044 3.55327 10.0094C2.66549 10.5258 2.36172 11.6689 2.87365 12.5623C3.38631 13.4565 4.52122 13.7625 5.40826 13.2468H5.409C6.17982 12.7979 7.1441 13.3587 7.1441 14.2559V14.2559C7.1441 15.2879 7.97524 16.125 8.99982 16.125V16.125C10.0244 16.125 10.8556 15.2879 10.8556 14.2559V14.2559C10.8556 13.3587 11.8198 12.7979 12.5914 13.2468C13.4784 13.7625 14.6133 13.4565 15.126 12.5623C15.6387 11.6689 15.3342 10.5258 14.4471 10.0094H14.4464C13.6755 9.56044 13.6755 8.43956 14.4471 7.99061C15.3342 7.47499 15.6387 6.33188 15.126 5.43769Z" stroke="#BBBBBB" strokeWidth="1.5" strokeLinecap="round" strokeLinejoin="round"/>
</svg>
